<?xml version="1.0" encoding="us-ascii" standalone="no"?><svg xmlns="http://www.w3.org/2000/svg" xmlns:xlink="http://www.w3.org/1999/xlink" contentStyleType="text/css" height="485px" preserveAspectRatio="none" style="width:507px;height:485px;background:#FFFFFF;" version="1.1" viewBox="0 0 507 485" width="507px" zoomAndPan="magnify"><defs/><g><!--class Kubernetes_Cluster--><g id="elem_Kubernetes_Cluster"><rect codeLine="2" fill="#F1F1F1" height="80.5938" id="Kubernetes_Cluster" rx="2.5" ry="2.5" style="stroke:#181818;stroke-width:0.5;" width="169" x="7" y="7"/><ellipse cx="22" cy="23" fill="#ADD1B2" rx="11" ry="11" style="stroke:#181818;stroke-width:1.0;"/><path d="M24.9688,28.6406 Q24.3906,28.9375 23.75,29.0781 Q23.1094,29.2344 22.4063,29.2344 Q19.9063,29.2344 18.5781,27.5938 Q17.2656,25.9375 17.2656,22.8125 Q17.2656,19.6875 18.5781,18.0313 Q19.9063,16.375 22.4063,16.375 Q23.1094,16.375 23.75,16.5313 Q24.4063,16.6875 24.9688,16.9844 L24.9688,19.7031 Q24.3438,19.125 23.75,18.8594 Q23.1563,18.5781 22.5313,18.5781 Q21.1875,18.5781 20.5,19.6563 Q19.8125,20.7188 19.8125,22.8125 Q19.8125,24.9063 20.5,25.9844 Q21.1875,27.0469 22.5313,27.0469 Q23.1563,27.0469 23.75,26.7813 Q24.3438,26.5 24.9688,25.9219 L24.9688,28.6406 Z " fill="#000000"/><text fill="#000000" font-family="sans-serif" font-size="14" lengthAdjust="spacing" textLength="137" x="36" y="27.8467">Kubernetes_Cluster</text><line style="stroke:#181818;stroke-width:0.5;" x1="8" x2="175" y1="39" y2="39"/><ellipse cx="18" cy="52.6484" fill="none" rx="3" ry="3" style="stroke:#038048;stroke-width:1.0;"/><text fill="#000000" font-family="sans-serif" font-size="14" lengthAdjust="spacing" textLength="82" x="27" y="55.9951">Namespace</text><ellipse cx="18" cy="68.9453" fill="none" rx="3" ry="3" style="stroke:#038048;stroke-width:1.0;"/><text fill="#000000" font-family="sans-serif" font-size="14" lengthAdjust="spacing" textLength="92" x="27" y="72.292">VirtualService</text><line style="stroke:#181818;stroke-width:0.5;" x1="8" x2="175" y1="79.5938" y2="79.5938"/></g><!--class Namespace--><g id="elem_Namespace"><rect codeLine="7" fill="#F1F1F1" height="80.5938" id="Namespace" rx="2.5" ry="2.5" style="stroke:#181818;stroke-width:0.5;" width="114" x="210.5" y="7"/><ellipse cx="225.5" cy="23" fill="#ADD1B2" rx="11" ry="11" style="stroke:#181818;stroke-width:1.0;"/><path d="M228.4688,28.6406 Q227.8906,28.9375 227.25,29.0781 Q226.6094,29.2344 225.9063,29.2344 Q223.4063,29.2344 222.0781,27.5938 Q220.7656,25.9375 220.7656,22.8125 Q220.7656,19.6875 222.0781,18.0313 Q223.4063,16.375 225.9063,16.375 Q226.6094,16.375 227.25,16.5313 Q227.9063,16.6875 228.4688,16.9844 L228.4688,19.7031 Q227.8438,19.125 227.25,18.8594 Q226.6563,18.5781 226.0313,18.5781 Q224.6875,18.5781 224,19.6563 Q223.3125,20.7188 223.3125,22.8125 Q223.3125,24.9063 224,25.9844 Q224.6875,27.0469 226.0313,27.0469 Q226.6563,27.0469 227.25,26.7813 Q227.8438,26.5 228.4688,25.9219 L228.4688,28.6406 Z " fill="#000000"/><text fill="#000000" font-family="sans-serif" font-size="14" lengthAdjust="spacing" textLength="82" x="239.5" y="27.8467">Namespace</text><line style="stroke:#181818;stroke-width:0.5;" x1="211.5" x2="323.5" y1="39" y2="39"/><ellipse cx="221.5" cy="52.6484" fill="none" rx="3" ry="3" style="stroke:#038048;stroke-width:1.0;"/><text fill="#000000" font-family="sans-serif" font-size="14" lengthAdjust="spacing" textLength="84" x="230.5" y="55.9951">Deployment</text><ellipse cx="221.5" cy="68.9453" fill="none" rx="3" ry="3" style="stroke:#038048;stroke-width:1.0;"/><text fill="#000000" font-family="sans-serif" font-size="14" lengthAdjust="spacing" textLength="50" x="230.5" y="72.292">Service</text><line style="stroke:#181818;stroke-width:0.5;" x1="211.5" x2="323.5" y1="79.5938" y2="79.5938"/></g><!--class Deployment--><g id="elem_Deployment"><rect codeLine="12" fill="#F1F1F1" height="64.2969" id="Deployment" rx="2.5" ry="2.5" style="stroke:#181818;stroke-width:0.5;" width="116" x="33.5" y="164.59"/><ellipse cx="48.5" cy="180.59" fill="#ADD1B2" rx="11" ry="11" style="stroke:#181818;stroke-width:1.0;"/><path d="M51.4688,186.2306 Q50.8906,186.5275 50.25,186.6681 Q49.6094,186.8244 48.9063,186.8244 Q46.4063,186.8244 45.0781,185.1837 Q43.7656,183.5275 43.7656,180.4025 Q43.7656,177.2775 45.0781,175.6212 Q46.4063,173.965 48.9063,173.965 Q49.6094,173.965 50.25,174.1212 Q50.9063,174.2775 51.4688,174.5744 L51.4688,177.2931 Q50.8438,176.715 50.25,176.4494 Q49.6563,176.1681 49.0313,176.1681 Q47.6875,176.1681 47,177.2462 Q46.3125,178.3087 46.3125,180.4025 Q46.3125,182.4962 47,183.5744 Q47.6875,184.6369 49.0313,184.6369 Q49.6563,184.6369 50.25,184.3712 Q50.8438,184.09 51.4688,183.5119 L51.4688,186.2306 Z " fill="#000000"/><text fill="#000000" font-family="sans-serif" font-size="14" lengthAdjust="spacing" textLength="84" x="62.5" y="185.4367">Deployment</text><line style="stroke:#181818;stroke-width:0.5;" x1="34.5" x2="148.5" y1="196.59" y2="196.59"/><ellipse cx="44.5" cy="210.2384" fill="none" rx="3" ry="3" style="stroke:#038048;stroke-width:1.0;"/><text fill="#000000" font-family="sans-serif" font-size="14" lengthAdjust="spacing" textLength="27" x="53.5" y="213.5851">Pod</text><line style="stroke:#181818;stroke-width:0.5;" x1="34.5" x2="148.5" y1="220.8869" y2="220.8869"/></g><!--class VirtualService--><g id="elem_VirtualService"><rect codeLine="16" fill="#F1F1F1" height="48" id="VirtualService" rx="2.5" ry="2.5" style="stroke:#181818;stroke-width:0.5;" width="124" x="376.5" y="23.3"/><ellipse cx="391.5" cy="39.3" fill="#ADD1B2" rx="11" ry="11" style="stroke:#181818;stroke-width:1.0;"/><path d="M394.4688,44.9406 Q393.8906,45.2375 393.25,45.3781 Q392.6094,45.5344 391.9063,45.5344 Q389.4063,45.5344 388.0781,43.8938 Q386.7656,42.2375 386.7656,39.1125 Q386.7656,35.9875 388.0781,34.3313 Q389.4063,32.675 391.9063,32.675 Q392.6094,32.675 393.25,32.8313 Q393.9063,32.9875 394.4688,33.2844 L394.4688,36.0031 Q393.8438,35.425 393.25,35.1594 Q392.6563,34.8781 392.0313,34.8781 Q390.6875,34.8781 390,35.9563 Q389.3125,37.0188 389.3125,39.1125 Q389.3125,41.2063 390,42.2844 Q390.6875,43.3469 392.0313,43.3469 Q392.6563,43.3469 393.25,43.0813 Q393.8438,42.8 394.4688,42.2219 L394.4688,44.9406 Z " fill="#000000"/><text fill="#000000" font-family="sans-serif" font-size="14" lengthAdjust="spacing" textLength="92" x="405.5" y="44.1467">VirtualService</text><line style="stroke:#181818;stroke-width:0.5;" x1="377.5" x2="499.5" y1="55.3" y2="55.3"/><line style="stroke:#181818;stroke-width:0.5;" x1="377.5" x2="499.5" y1="63.3" y2="63.3"/></g><!--class Artifactory--><g id="elem_Artifactory"><rect codeLine="18" fill="#F1F1F1" height="48" id="Artifactory" rx="2.5" ry="2.5" style="stroke:#181818;stroke-width:0.5;" width="100" x="204.5" y="172.74"/><ellipse cx="219.5" cy="188.74" fill="#ADD1B2" rx="11" ry="11" style="stroke:#181818;stroke-width:1.0;"/><path d="M222.4688,194.3806 Q221.8906,194.6775 221.25,194.8181 Q220.6094,194.9744 219.9063,194.9744 Q217.4063,194.9744 216.0781,193.3338 Q214.7656,191.6775 214.7656,188.5525 Q214.7656,185.4275 216.0781,183.7713 Q217.4063,182.115 219.9063,182.115 Q220.6094,182.115 221.25,182.2713 Q221.9063,182.4275 222.4688,182.7244 L222.4688,185.4431 Q221.8438,184.865 221.25,184.5994 Q220.6563,184.3181 220.0313,184.3181 Q218.6875,184.3181 218,185.3963 Q217.3125,186.4588 217.3125,188.5525 Q217.3125,190.6463 218,191.7244 Q218.6875,192.7869 220.0313,192.7869 Q220.6563,192.7869 221.25,192.5213 Q221.8438,192.24 222.4688,191.6619 L222.4688,194.3806 Z " fill="#000000"/><text fill="#000000" font-family="sans-serif" font-size="14" lengthAdjust="spacing" textLength="68" x="233.5" y="193.5867">Artifactory</text><line style="stroke:#181818;stroke-width:0.5;" x1="205.5" x2="303.5" y1="204.74" y2="204.74"/><line style="stroke:#181818;stroke-width:0.5;" x1="205.5" x2="303.5" y1="212.74" y2="212.74"/></g><!--class Pod--><g id="elem_Pod"><rect codeLine="20" fill="#F1F1F1" height="48" id="Pod" rx="2.5" ry="2.5" style="stroke:#181818;stroke-width:0.5;" width="59" x="306" y="305.89"/><ellipse cx="321" cy="321.89" fill="#ADD1B2" rx="11" ry="11" style="stroke:#181818;stroke-width:1.0;"/><path d="M323.9688,327.5306 Q323.3906,327.8275 322.75,327.9681 Q322.1094,328.1244 321.4063,328.1244 Q318.9063,328.1244 317.5781,326.4838 Q316.2656,324.8275 316.2656,321.7025 Q316.2656,318.5775 317.5781,316.9213 Q318.9063,315.265 321.4063,315.265 Q322.1094,315.265 322.75,315.4213 Q323.4063,315.5775 323.9688,315.8744 L323.9688,318.5931 Q323.3438,318.015 322.75,317.7494 Q322.1563,317.4681 321.5313,317.4681 Q320.1875,317.4681 319.5,318.5463 Q318.8125,319.6088 318.8125,321.7025 Q318.8125,323.7963 319.5,324.8744 Q320.1875,325.9369 321.5313,325.9369 Q322.1563,325.9369 322.75,325.6713 Q323.3438,325.39 323.9688,324.8119 L323.9688,327.5306 Z " fill="#000000"/><text fill="#000000" font-family="sans-serif" font-size="14" lengthAdjust="spacing" textLength="27" x="335" y="326.7367">Pod</text><line style="stroke:#181818;stroke-width:0.5;" x1="307" x2="364" y1="337.89" y2="337.89"/><line style="stroke:#181818;stroke-width:0.5;" x1="307" x2="364" y1="345.89" y2="345.89"/></g><!--class Service--><g id="elem_Service"><rect codeLine="22" fill="#F1F1F1" height="48" id="Service" rx="2.5" ry="2.5" style="stroke:#181818;stroke-width:0.5;" width="82" x="355.5" y="430.89"/><ellipse cx="370.5" cy="446.89" fill="#ADD1B2" rx="11" ry="11" style="stroke:#181818;stroke-width:1.0;"/><path d="M373.4688,452.5306 Q372.8906,452.8275 372.25,452.9681 Q371.6094,453.1244 370.9063,453.1244 Q368.4063,453.1244 367.0781,451.4838 Q365.7656,449.8275 365.7656,446.7025 Q365.7656,443.5775 367.0781,441.9213 Q368.4063,440.265 370.9063,440.265 Q371.6094,440.265 372.25,440.4213 Q372.9063,440.5775 373.4688,440.8744 L373.4688,443.5931 Q372.8438,443.015 372.25,442.7494 Q371.6563,442.4681 371.0313,442.4681 Q369.6875,442.4681 369,443.5463 Q368.3125,444.6088 368.3125,446.7025 Q368.3125,448.7963 369,449.8744 Q369.6875,450.9369 371.0313,450.9369 Q371.6563,450.9369 372.25,450.6713 Q372.8438,450.39 373.4688,449.8119 L373.4688,452.5306 Z " fill="#000000"/><text fill="#000000" font-family="sans-serif" font-size="14" lengthAdjust="spacing" textLength="50" x="384.5" y="451.7367">Service</text><line style="stroke:#181818;stroke-width:0.5;" x1="356.5" x2="436.5" y1="462.89" y2="462.89"/><line style="stroke:#181818;stroke-width:0.5;" x1="356.5" x2="436.5" y1="470.89" y2="470.89"/></g><!--link Pod to Service--><g id="link_Pod_Service"><path codeLine="24" d="M347.12,354.31 C357.97,376.2 371.4244,403.3146 382.2644,425.1746 " fill="none" id="Pod-to-Service" style="stroke:#181818;stroke-width:1.0;"/><polygon fill="#181818" points="384.93,430.55,384.5152,420.7099,382.7087,426.0705,377.3481,424.264,384.93,430.55" style="stroke:#181818;stroke-width:1.0;"/><text fill="#000000" font-family="sans-serif" font-size="13" lengthAdjust="spacing" textLength="38" x="371.5" y="396.9569">Traffic</text></g><!--link Service to VirtualService--><g id="link_Service_VirtualService"><path codeLine="25" d="M408.19,430.43 C412.16,421.42 416.17,410.88 418.5,400.89 C445.38,285.38 429.66,253.04 435.5,134.59 C436.55,113.33 437.1838,95.1074 437.6938,77.7474 " fill="none" id="Service-to-VirtualService" style="stroke:#181818;stroke-width:1.0;"/><polygon fill="#181818" points="437.87,71.75,433.6074,80.6287,437.7232,76.7478,441.604,80.8636,437.87,71.75" style="stroke:#181818;stroke-width:1.0;"/><text fill="#000000" font-family="sans-serif" font-size="13" lengthAdjust="spacing" textLength="38" x="436.5" y="271.9569">Traffic</text></g><!--link VirtualService to Artifactory--><g id="link_VirtualService_Artifactory"><path codeLine="26" d="M383.77,71.76 C370.08,77.27 355.35,82.9 341.5,87.59 C293.91,103.72 262.95,77.63 232.5,117.59 C220.37,133.51 225.4774,150.6196 235.0874,167.3196 " fill="none" id="VirtualService-to-Artifactory" style="stroke:#181818;stroke-width:1.0;"/><polygon fill="#181818" points="238.08,172.52,237.0581,162.7243,235.5862,168.1863,230.1242,166.7144,238.08,172.52" style="stroke:#181818;stroke-width:1.0;"/><text fill="#000000" font-family="sans-serif" font-size="13" lengthAdjust="spacing" textLength="197" x="233.5" y="130.6569">Pulls Image using grafana-cred</text></g><!--link Artifactory to Pod--><g id="link_Artifactory_Pod"><path codeLine="27" d="M268.98,221.19 C283.72,245.06 303.2986,276.7443 317.9886,300.5443 " fill="none" id="Artifactory-to-Pod" style="stroke:#181818;stroke-width:1.0;"/><polygon fill="#181818" points="321.14,305.65,319.8167,295.8904,318.5138,301.3952,313.0091,300.0923,321.14,305.65" style="stroke:#181818;stroke-width:1.0;"/><text fill="#000000" font-family="sans-serif" font-size="13" lengthAdjust="spacing" textLength="98" x="303.5" y="271.9569">Provides Image</text></g><!--SRC=[POxB2i8m44Nt-OhPIt_0XI2w4K4AYbiPqsa9f4cP98KY_hk9VLftcNlFuKPgT0xEuKbio9Dx77HmdXXU0c1pmPfSWvBISLVi0-ehSQjYyXP2VkK9wfqZDTfsDHcVhZzwhdiyjyLShYQ6TCzUbIYzvMwCaZKy9pXca6MxCO0jt1ZBKaan9gdzdLX0goAnY-48va5h1wSQAuBWbAcWYYeQp2HJ8PPmajDteiIsLGKDdlW0]--></g></svg>