<?xml version="1.0" encoding="UTF-8" standalone="no"?>
<!DOCTYPE svg PUBLIC "-//W3C//DTD SVG 1.1//EN"
 "http://www.w3.org/Graphics/SVG/1.1/DTD/svg11.dtd">
<!-- Generated by graphviz version 9.0.0 (20230911.1827)
 -->
<!-- Title: G Pages: 1 -->
<svg width="300pt" height="279pt"
 viewBox="0.00 0.00 300.00 278.50" xmlns="http://www.w3.org/2000/svg" xmlns:xlink="http://www.w3.org/1999/xlink">
<g id="graph0" class="graph" transform="scale(1 1) rotate(0) translate(4 274.5)">
<title>G</title>
<polygon fill="white" stroke="none" points="-4,4 -4,-274.5 296,-274.5 296,4 -4,4"/>
<g id="clust1" class="cluster">
<title>cluster_0</title>
<polygon fill="none" stroke="blue" points="8,-8 8,-262.5 284,-262.5 284,-8 8,-8"/>
<text text-anchor="middle" x="146" y="-245.2" font-family="Times,serif" font-size="14.00">Kubernetes Cluster</text>
</g>
<g id="clust2" class="cluster">
<title>cluster_1</title>
<polygon fill="none" stroke="green" points="16,-80 16,-229.25 276,-229.25 276,-80 16,-80"/>
<text text-anchor="middle" x="146" y="-211.95" font-family="Times,serif" font-size="14.00">Namespace</text>
</g>
<!-- Deployment -->
<g id="node1" class="node">
<title>Deployment</title>
<polygon fill="none" stroke="black" points="267.62,-196 24.38,-196 24.38,-160 267.62,-160 267.62,-196"/>
<text text-anchor="middle" x="146" y="-173.32" font-family="Times,serif" font-size="14.00">Deployment (Elastic Agent Pod)</text>
</g>
<!-- Service -->
<g id="node2" class="node">
<title>Service</title>
<polygon fill="none" stroke="black" points="180.62,-124 111.38,-124 111.38,-88 180.62,-88 180.62,-124"/>
<text text-anchor="middle" x="146" y="-101.33" font-family="Times,serif" font-size="14.00">Service</text>
</g>
<!-- Deployment&#45;&gt;Service -->
<g id="edge1" class="edge">
<title>Deployment&#45;&gt;Service</title>
<path fill="none" stroke="black" d="M146,-159.7C146,-152.41 146,-143.73 146,-135.54"/>
<polygon fill="black" stroke="black" points="149.5,-135.62 146,-125.62 142.5,-135.62 149.5,-135.62"/>
</g>
<!-- VirtualService -->
<g id="node3" class="node">
<title>VirtualService</title>
<polygon fill="none" stroke="red" points="207.25,-52 84.75,-52 84.75,-16 207.25,-16 207.25,-52"/>
<text text-anchor="middle" x="146" y="-29.32" font-family="Times,serif" font-size="14.00">Virtual Service</text>
</g>
<!-- Service&#45;&gt;VirtualService -->
<g id="edge2" class="edge">
<title>Service&#45;&gt;VirtualService</title>
<path fill="none" stroke="black" d="M146,-87.7C146,-80.41 146,-71.73 146,-63.54"/>
<polygon fill="black" stroke="black" points="149.5,-63.62 146,-53.62 142.5,-63.62 149.5,-63.62"/>
</g>
</g>
</svg>
